HIERARCHY
ROOT Hips
{
    OFFSET 0.000000 0.000000 0.000000
    CHANNELS 6 Xposition Yposition Zposition Zrotation Xrotation Yrotation
    JOINT Spine
    {
        OFFSET -0.000000 7.979263 0.000000
        CHANNELS 3 Zrotation Xrotation Yrotation
        JOINT Spine1
        {
            OFFSET -0.000000 24.719021 0.000000
            CHANNELS 3 Zrotation Xrotation Yrotation
            JOINT Neck
            {
                OFFSET -0.000000 24.617504 2.237955
                CHANNELS 3 Zrotation Xrotation Yrotation
                JOINT Head
                {
                    OFFSET -0.000000 13.623132 -1.946162
                    CHANNELS 3 Zrotation Xrotation Yrotation
                    End Site
                    {
                        OFFSET -0.000000 24.327021 0.000000
                    }
                }
            }
            JOINT LeftShoulder
            {
                OFFSET 3.885773 23.018444 -0.302444
                CHANNELS 3 Zrotation Xrotation Yrotation
                JOINT LeftArm
                {
                    OFFSET 10.447750 0.000000 0.000000
                    CHANNELS 3 Zrotation Xrotation Yrotation
                    JOINT LeftForeArm
                    {
                        OFFSET 29.090096 0.000000 0.000000
                        CHANNELS 3 Zrotation Xrotation Yrotation
                        JOINT LeftHand
                        {
                            OFFSET 28.893339 0.000000 0.000000
                            CHANNELS 3 Zrotation Xrotation Yrotation
                            End Site
                            {
                                OFFSET 14.596213 0.000000 0.000000
                            }
                        }
                    }
                }
            }
            JOINT RightShoulder
            {
                OFFSET -3.864586 23.018444 -0.302444
                CHANNELS 3 Zrotation Xrotation Yrotation
                JOINT RightArm
                {
                    OFFSET -10.447750 0.000000 0.000000
                    CHANNELS 3 Zrotation Xrotation Yrotation
                    JOINT RightForeArm
                    {
                        OFFSET -29.090096 0.000000 0.000000
                        CHANNELS 3 Zrotation Xrotation Yrotation
                        JOINT RightHand
                        {
                            OFFSET -28.893339 0.000000 0.000000
                            CHANNELS 3 Zrotation Xrotation Yrotation
                            End Site
                            {
                                OFFSET -14.596213 0.000000 0.000000
                            }
                        }
                    }
                }
            }
        }
    }
    JOINT LeftUpLeg
    {
        OFFSET 9.730808 0.000000 0.000000
        CHANNELS 3 Zrotation Xrotation Yrotation
        JOINT LeftLeg
        {
            OFFSET -0.000000 -34.800129 0.000000
            CHANNELS 3 Zrotation Xrotation Yrotation
            JOINT LeftFoot
            {
                OFFSET -0.000000 -44.597416 0.000000
                CHANNELS 3 Zrotation Xrotation Yrotation
                JOINT LeftToeBase
                {
                    OFFSET -0.000000 -6.325025 14.596213
                    CHANNELS 3 Zrotation Xrotation Yrotation
                    End Site
                    {
                        OFFSET -0.000000 0.000000 3.892323
                    }
                }
            }
        }
    }
    JOINT RightUpLeg
    {
        OFFSET -9.730808 0.000000 0.000000
        CHANNELS 3 Zrotation Xrotation Yrotation
        JOINT RightLeg
        {
            OFFSET -0.000000 -34.800129 0.000000
            CHANNELS 3 Zrotation Xrotation Yrotation
            JOINT RightFoot
            {
                OFFSET -0.000000 -44.597416 0.000000
                CHANNELS 3 Zrotation Xrotation Yrotation
                JOINT RightToeBase
                {
                    OFFSET -0.000000 -6.325025 14.596213
                    CHANNELS 3 Zrotation Xrotation Yrotation
                    End Site
                    {
                        OFFSET -0.000000 0.000000 3.892323
                    }
                }
            }
        }
    }
}
MOTION
Frames:    4
Frame Time:    0.008333
-99.021744    84.405357    27.075132    -12.362080    -4.907834    99.226517    -3.424861    -12.662509    -5.098638    4.056963    -3.442367    -4.596569    9.095139    24.901785    -3.339712    -8.277490    -7.599087    -4.428554    8.808533    4.813223    -22.094572    -61.115185    36.522934    -16.298788    11.690130    -21.196501    -23.793694    2.734066    -18.926893    -2.329970    -4.129326    6.385490    -4.762104    84.006180    48.152073    -17.886747    6.350188    -15.567454    10.868248    -3.221466    -16.012991    -5.037586    0.435160    2.406366    -4.747197    -0.882630    6.900083    -5.021755    -1.558665    -7.802203    -7.635591    0.000000    0.000000    0.000000    6.394729    -33.814930    5.010063    0.676780    -1.595955    -11.777453    7.623115    2.641641    -4.357848    0.000000    0.000000    0.000000    
-98.050171    84.274574    26.996809    -12.530802    -4.919812    99.597076    -3.155061    -12.694888    -5.220338    3.895616    -3.324329    -4.756204    8.506014    24.158651    -3.236385    -7.395291    -7.156281    -4.222392    8.932755    4.653428    -21.456472    -61.273785    37.223618    -16.294710    11.659017    -21.254826    -23.881142    2.764496    -18.978781    -2.096087    -4.171776    6.062386    -4.637512    84.356804    48.079258    -18.062037    6.315020    -15.220553    10.676433    -3.161926    -15.665986    -4.657137    0.533372    2.583711    -4.589255    -0.860408    7.335795    -5.415485    -1.816832    -7.652195    -7.962454    0.000000    0.000000    0.000000    6.533844    -34.162640    5.299757    0.772086    -1.129019    -12.459163    7.051866    2.703830    -4.676227    0.000000    0.000000    0.000000    
-97.052856    84.140869    26.911676    -12.625700    -4.952572    100.007751    -2.962306    -12.757279    -5.339351    3.881413    -3.107088    -4.902815    8.386251    23.614956    -3.066803    -7.256896    -7.066168    -4.066630    9.075199    4.532887    -21.143358    -61.635918    37.521847    -16.236027    11.356780    -21.296545    -23.977541    3.334876    -19.073540    -1.768236    -4.182232    5.853611    -4.667110    84.343231    48.412445    -17.878435    6.435925    -15.005265    10.515396    -2.856811    -15.467155    -4.578052    0.651461    2.778837    -4.345756    -0.787478    7.822588    -5.527437    -2.261459    -7.450100    -8.841142    0.000000    0.000000    0.000000    6.641901    -34.460556    5.467582    0.892682    -0.304870    -12.793040    6.304524    2.697198    -4.994982    0.000000    0.000000    0.000000    
-96.036774    84.003334    26.820351    -12.684311    -5.013256    100.418236    -2.911391    -12.811307    -5.363957    4.112771    -2.958746    -4.930758    8.562719    23.197559    -3.226621    -7.379515    -6.909212    -4.270567    9.193801    4.636358    -21.475021    -62.064545    37.456364    -16.087324    11.314645    -21.191523    -23.904472    3.592000    -18.976498    -1.431962    -4.066133    5.840580    -4.474508    84.462891    48.550102    -18.007320    6.247567    -14.921610    10.478695    -2.434286    -15.387547    -4.271495    0.833137    3.001623    -4.219796    -0.781456    8.233190    -4.447438    -2.789882    -7.042334    -10.771646    0.000000    0.000000    0.000000    6.735137    -34.726784    5.754588    1.072906    0.681846    -13.208612    5.656849    2.727029    -5.229526    0.000000    0.000000    0.000000    
